<?xml version="1.0" encoding="utf-8"?>
<!-- Generator: Adobe Illustrator 28.2.0, SVG Export Plug-In . SVG Version: 6.00 Build 0)  -->
<svg version="1.1" id="레이어_1" xmlns="http://www.w3.org/2000/svg" xmlns:xlink="http://www.w3.org/1999/xlink" x="0px"
	 y="0px" width="203.4px" height="35.7px" viewBox="0 0 203.4 35.7" enable-background="new 0 0 203.4 35.7" xml:space="preserve">
<g>
	<g>
		<path fill="#8E9093" d="M38.1,29.5v-2.3h11c4.4,0,4.8-1.3,4.8-2.9v-0.2c0-2.7-0.7-3-4.4-3.2l-2.1,0h-2.3c-4.7,0-7.1-1.7-7.1-5
			v-0.1c0-4.6,3.2-5.2,6.7-5.2h11.5v2.4H44.8c-3.9,0-4.4,0.9-4.4,2.8V16c0,0.9,0,2.6,4.8,2.6h2.4l2.1,0.1c3.5,0,6.7,0.4,6.7,5.5v0.2
			c0,4.7-4.1,5.2-7.1,5.2H38.1z"/>
		<path fill="#8E9093" d="M92.4,17.7v11.8h-2.3V17.7c0-1-0.4-1.8-1.1-2.6c-1.3-1.3-3.6-2.1-6-2.1c-3.1,0-6.3,1.6-6.3,4.7v11.8h0
			h-2.2h0V17.7c0-1-0.4-1.8-1.1-2.6c-1.3-1.3-3.6-2.1-5.9-2.1h0c-3.1,0-6.3,1.6-6.3,4.7v11.8h-2.3V17.7c0-4,3.7-7,8.6-7h0
			c2.9,0,5.8,1,7.5,2.8c0.2,0.2,0.5,0.5,0.6,0.7c1.4-2.1,4.2-3.5,7.5-3.5c3,0,5.9,1,7.6,2.8C91.8,14.7,92.4,16.2,92.4,17.7z"/>
		<path fill="#8E9093" d="M103.3,29.5c-5,0-8.4-2.6-8.4-6.4v-0.2c0-6.3,5.8-6.3,8-6.3c3.9,0,6,0,7.2,0c-1-2.7-4.3-3.5-6.4-3.5h-7.6
			v-2.3h7.6c4.2,0,8.7,2.2,8.9,6.9h0c0,0,0,0,0,0.1c0,0.1,0,0.2,0,0.3v4.5c0,1.6-0.6,3-1.8,4.1C109.2,28.4,106.3,29.5,103.3,29.5
			C103.4,29.5,103.4,29.5,103.3,29.5z M110.4,18.8c-0.1,0-0.1,0-0.2,0c-1.2,0-3.3,0-7.3,0c-4.2,0-5.8,1.1-5.8,4.1v0.2
			c0,3,3.2,4.1,6.2,4.1c2.3,0,4.6-0.8,5.9-2.1c0.7-0.7,1.1-1.6,1.1-2.5V18.8z"/>
		<path fill="#8E9093" d="M117.1,29.5h-2.3V18.2c0-5,4.6-7.3,9-7.3h7.7v2.3h-7.7c-2.5,0-6.7,1.1-6.7,5V29.5z"/>
		<path fill="#8E9093" d="M143.4,27.2v2.3c-4.3,0-8.9-2.3-8.9-7.3V4.1h2.2v6.6h6.7V13h-6.7v9.1C136.7,26.1,140.9,27.2,143.4,27.2z"
			/>
		<path fill="#8E9093" d="M163.8,29.5h-8.7c-4,0-8.6-1.7-8.9-6.5c0,0,0,0,0-0.1c0-0.1,0-0.2,0-0.3v-4.9c0-1.6,0.6-3,1.8-4.1
			c1.7-1.7,4.5-2.7,7.4-2.7c0,0,0,0,0,0c5,0,8.4,2.6,8.4,6.4v0.2c0,3.1-1.4,6.7-8,6.7c-3.8,0-5.9,0-7.1,0c1.1,2.8,5,3.1,6.3,3.1h8.7
			V29.5z M149.6,15.3c-0.7,0.7-1.1,1.6-1.1,2.5v4.1h7.3c5.1,0,5.7-2.4,5.7-4.4v-0.2c0-3-3.2-4.1-6.1-4.1h0
			C153.2,13.2,150.9,14,149.6,15.3z"/>
		<path fill="#8E9093" d="M168.1,26.9c-1.2-1.2-1.9-2.9-1.9-4.7V18c0-5,4.6-7.4,9-7.4h7.7v2.3h-7.7c-2.5,0-6.7,1.1-6.7,5v4.2
			c0,1.2,0.4,2.3,1.2,3.1c1.2,1.2,3.4,2,5.8,2c0,0,0,0,0,0h7.3v2.3h-7.3c0,0,0,0,0,0C172.5,29.5,169.8,28.6,168.1,26.9z"/>
		<path fill="#8E9093" d="M203.4,20.3v1.9c0,2.5,0,6.5,0,7.3H201c0-0.7,0-4.8,0-7.3v-1.9c0-2.2-0.6-3.9-1.9-5.1
			c-2.5-2.4-6.5-2.2-6.5-2.2h-0.1h-4.9v16.5h-2.3V4.1h2.3v6.6h4.9c0.5,0,5.1-0.1,8.2,2.9C202.5,15.2,203.4,17.5,203.4,20.3z"/>
	</g>
	<g>
		<g>
			<g>
				<path fill="#71BE44" d="M3.3,35.7c-1.8,0-3.3-1.5-3.3-3.3V3.3C0,1.5,1.5,0,3.3,0c1.8,0,3.3,1.5,3.3,3.3v29.1
					C6.7,34.2,5.2,35.7,3.3,35.7z"/>
			</g>
		</g>
		<g>
			<path fill="#4E5EAA" d="M3.3,27.9c-0.8,0-1.7-0.3-2.3-0.9c-1.3-1.3-1.4-3.4-0.1-4.7L21.4,1c1.3-1.3,3.4-1.4,4.7-0.1
				c1.3,1.3,1.4,3.4,0.1,4.7L5.7,26.9C5.1,27.6,4.2,27.9,3.3,27.9z"/>
		</g>
		<g>
			<path fill="#4BAADF" d="M25.9,35.7c-1,0-1.9-0.4-2.6-1.2L9.5,17.7c-1.2-1.4-1-3.5,0.5-4.7c1.4-1.2,3.5-1,4.7,0.5l13.8,16.8
				c1.2,1.4,1,3.5-0.5,4.7C27.4,35.5,26.6,35.7,25.9,35.7z"/>
		</g>
	</g>
</g>
</svg>
